
<svg width="24" height="24" viewBox="0 0 24 24" fill="none" xmlns="http://www.w3.org/2000/svg">
<g clip-path="url(#clip0_3907_3016)">
<path d="M0 0H24V24H0V0Z" fill="#032EA1"/>
<path d="M0 6H24V18H0V6Z" fill="#E00025"/>
<path d="M8.62109 11.3147H15.4491V13.9427H8.62109V11.3147Z" fill="white" stroke="black" stroke-width="0.16" stroke-linejoin="bevel"/>
<path d="M15.1011 12.7607H15.3111V13.7507H15.1011V12.7607ZM8.62109 12.2747H15.4491V12.5747H8.62109V12.2747ZM8.62109 11.8547H15.4491V12.1307H8.62109V11.8547Z" fill="white" stroke="black" stroke-width="0.16" stroke-linejoin="bevel"/>
<path d="M8.62109 11.4467H15.4491V11.7047H8.62109V11.4467Z" fill="white" stroke="black" stroke-width="0.144" stroke-linejoin="bevel"/>
<path d="M10.4216 12.7607H10.6376V13.7507H10.4216V12.7607ZM13.3616 12.7607H13.5776V13.7507H13.3616V12.7607ZM8.68164 12.7607H8.89164V13.7507H8.68164V12.7607ZM9.10164 12.7607H9.31164V13.7507H9.10164V12.7607ZM9.55164 12.7607H9.76164V13.7507H9.55164V12.7607ZM10.0016 12.7607H10.2116V13.7507H10.0016V12.7607ZM13.7696 12.7607H13.9856V13.7507H13.7696V12.7607ZM14.2196 12.7607H14.4356V13.7507H14.2196V12.7607ZM14.6696 12.7607H14.8856V13.7507H14.6696V12.7607Z" fill="white" stroke="black" stroke-width="0.16" stroke-linejoin="bevel"/>
<path d="M5.95117 14.0747C6.07663 14.0064 6.17112 13.8926 6.21517 13.7567H17.8012C17.8452 13.8926 17.9397 14.0064 18.0652 14.0747H5.95117Z" fill="white" stroke="black" stroke-width="0.16"/>
<path d="M11.8611 7.31268C11.8611 7.31268 11.8551 7.06668 11.9991 7.06068C12.1371 7.06068 12.1311 7.31268 12.1311 7.31268H11.8611ZM11.1111 10.5827V10.2527C11.1111 10.0847 10.9431 10.0727 10.9431 9.95269C10.9431 9.95269 10.9191 9.77269 10.9671 9.68869C11.0331 9.92869 11.1471 9.88669 11.1471 9.78469C11.1471 9.70069 11.0871 9.61669 10.9491 9.40669C10.9011 9.34069 10.9311 9.13069 10.9911 9.05269C11.0151 9.23269 11.0451 9.32269 11.1231 9.32269C11.1711 9.32269 11.2071 9.29269 11.2071 9.20269C11.2071 9.08268 11.1291 9.02269 11.0871 8.91469C11.0664 8.86094 11.0616 8.80237 11.0733 8.74598C11.085 8.68959 11.1127 8.63777 11.1531 8.59669C11.1831 8.77669 11.1771 8.84869 11.2551 8.84869C11.4171 8.79469 11.2551 8.56068 11.2191 8.50068C11.1831 8.43468 11.2791 8.29669 11.2791 8.29669C11.3271 8.45869 11.3391 8.47069 11.3991 8.45268C11.4711 8.43468 11.4591 8.33269 11.3751 8.24869C11.3211 8.18869 11.3271 8.11068 11.3871 8.05068C11.4471 8.16468 11.5191 8.15869 11.5251 8.08669L11.4771 7.82268H12.5211L12.4671 8.08068C12.4551 8.15268 12.5511 8.17068 12.6111 8.05068C12.6711 8.11068 12.6771 8.19469 12.6231 8.24869C12.5391 8.33269 12.5271 8.43468 12.5991 8.45268C12.6591 8.47069 12.6711 8.45269 12.7191 8.29669C12.7191 8.29669 12.8091 8.38668 12.7791 8.50068C12.7431 8.56068 12.5811 8.80069 12.7431 8.84869C12.8211 8.84869 12.8151 8.77669 12.8451 8.59669C12.8844 8.63841 12.911 8.69054 12.9216 8.7469C12.9322 8.80326 12.9265 8.86149 12.9051 8.91469C12.8691 9.02269 12.7851 9.08268 12.7851 9.20269C12.7851 9.29269 12.8271 9.32269 12.8751 9.32269C12.9531 9.32269 12.9831 9.23869 13.0071 9.05269C13.0671 9.13069 13.0971 9.34069 13.0491 9.41268C12.9111 9.61669 12.8451 9.70069 12.8451 9.78469C12.8451 9.88669 12.9651 9.92869 13.0251 9.68869C13.0791 9.77269 13.0551 9.95269 13.0551 9.95269C13.0551 10.0727 12.8931 10.0847 12.8871 10.2527V10.5827H11.1111ZM11.5431 7.82268L11.5191 7.63669H12.4731L12.4491 7.82268H11.5431ZM11.6031 7.63068L11.5911 7.48068H12.4011L12.3831 7.63068H11.6031ZM11.7411 7.47469L11.7231 7.31869H12.2631L12.2571 7.47469H11.7411ZM13.7211 14.0747C13.6011 14.0327 13.4211 13.9007 13.4211 13.7747V12.3167L13.5771 12.1127H10.4211L10.5711 12.3167V13.7747C10.5711 13.9007 10.4511 14.0327 10.3311 14.0747H13.7211Z" fill="white" stroke="black" stroke-width="0.16"/>
<path d="M10.9727 12.7607H11.1887V13.7507H10.9727V12.7607ZM12.7967 12.7607H13.0127V13.7507H12.7967V12.7607Z" fill="white" stroke="black" stroke-width="0.16" stroke-linejoin="bevel"/>
<path d="M10.3605 10.4567V12.1127H13.6005V10.4567C13.5631 10.4704 13.5294 10.4927 13.5023 10.5219C13.4752 10.5511 13.4554 10.5863 13.4445 10.6247V11.3327H10.5225V10.6247C10.5225 10.6247 10.4865 10.5047 10.3545 10.4567H10.3605Z" fill="white" stroke="black" stroke-width="0.16"/>
<path d="M13.1571 14.0747C13.0491 14.0327 12.8211 13.9007 12.8211 13.7747V12.1427C12.8451 12.0527 12.9651 11.9987 13.0431 11.9387H10.9011C11.0031 11.9987 11.1171 12.0407 11.1591 12.1427V13.7747C11.1591 13.9007 10.9791 14.0327 10.8711 14.0747H13.1571Z" fill="white" stroke="black" stroke-width="0.16"/>
<path d="M13.4445 11.9567V10.7807H13.1505V10.6667H10.8225V10.7867H10.5225V11.9567H13.4445ZM12.7005 14.0747C12.5925 14.0327 12.4425 13.9007 12.4425 13.7747V12.3827L12.5265 12.2567H11.4645L11.5545 12.3767V13.7747C11.5545 13.9007 11.3985 14.0327 11.2965 14.0747H12.7005Z" fill="white" stroke="black" stroke-width="0.16"/>
<path d="M11.7227 12.2567H12.2627V14.0747H11.7227V12.2567Z" fill="white" stroke="black" stroke-width="0.16"/>
<path d="M12.5451 11.8547C12.5451 11.7347 12.8931 11.7287 13.0731 11.6267H10.9131C11.0931 11.7287 11.4351 11.7347 11.4351 11.8547L11.5071 12.0887L12.4071 12.1247L12.5451 11.8547Z" fill="white" stroke="black" stroke-width="0.16" stroke-linejoin="bevel"/>
<path d="M12.9649 10.5827C12.9649 10.2887 12.9769 10.1807 13.0669 10.1807V11.1047C12.8449 11.1887 12.6889 11.4647 12.6889 11.4647H11.2969C11.2969 11.4647 11.1409 11.1887 10.9189 11.1047V10.1747C11.0269 10.1747 11.0269 10.2947 11.0269 10.5767L12.9649 10.5827ZM13.0669 10.4627C13.0669 10.1267 13.3609 10.0907 13.3609 10.0907V10.3907C13.2469 10.3847 13.1929 10.4867 13.1929 10.6307C13.1929 10.7807 13.2829 10.7807 13.2829 10.7807V11.6327H13.0669V10.4627Z" fill="white" stroke="black" stroke-width="0.16"/>
<path d="M10.919 10.4627C10.919 10.1267 10.625 10.0907 10.625 10.0907V10.3907C10.739 10.3847 10.793 10.4867 10.793 10.6307C10.793 10.7807 10.703 10.7807 10.703 10.7807V11.6327H10.919V10.4627Z" fill="white" stroke="black" stroke-width="0.16"/>
<path d="M11.4891 8.14069H12.5211M11.3691 8.46469H12.6291M11.2491 8.85469H12.7431M11.1231 9.32869H12.8931M11.0811 9.86869H12.9051" stroke="black" stroke-width="0.128"/>
<path d="M10.5293 11.6447H13.4453M11.4533 11.6447H12.5333V12.0407H11.4533V11.6447Z" stroke="black" stroke-width="0.16"/>
<path d="M11.3213 10.7567C11.5013 10.9727 11.4773 11.3387 11.4773 11.5547H12.5213C12.5213 11.3387 12.4973 10.9727 12.6773 10.7567H11.3213ZM11.9033 8.29668L11.7593 8.21868V8.00868C11.8193 8.02668 11.8793 8.03268 11.8913 8.12868C11.9093 7.99068 11.9513 8.00268 12.0053 7.94868C12.0653 8.00268 12.0953 7.99068 12.1193 8.12868C12.1193 8.03268 12.1913 8.02668 12.2453 8.00868V8.21868L12.1073 8.29068L11.9033 8.29668Z" fill="white" stroke="black" stroke-width="0.16"/>
<path d="M11.8914 8.63869L11.6514 8.47069V8.28469C11.7414 8.30269 11.8314 8.31469 11.8434 8.41669C11.8674 8.26669 11.9214 8.19469 12.0054 8.13469C12.0834 8.19469 12.1374 8.26669 12.1674 8.41669C12.1734 8.31469 12.2694 8.30269 12.3474 8.28469V8.47669L12.1134 8.63869H11.8914Z" fill="white" stroke="black" stroke-width="0.16"/>
<path d="M11.8728 9.17268L11.6028 8.93268V8.65068C11.6988 8.67468 11.8068 8.68668 11.8188 8.83668C11.8488 8.62668 11.9088 8.51268 11.9988 8.42868C12.0948 8.51268 12.1548 8.62668 12.1908 8.83668C12.2028 8.68668 12.3108 8.67468 12.4068 8.65068V8.93268L12.1308 9.17268H11.8728ZM12.3768 9.49068L12.1368 9.83268H11.8548L11.6088 9.49068H12.3768ZM11.4648 10.0607C11.5848 10.1267 11.6328 10.2647 11.6448 10.5167H12.3408C12.3528 10.2647 12.4008 10.1267 12.5208 10.0607H11.4648Z" fill="white" stroke="black" stroke-width="0.16"/>
<path d="M12.5331 9.48468V9.14869C12.4815 9.15969 12.4335 9.18363 12.3936 9.21826C12.3537 9.25289 12.3233 9.29708 12.3051 9.34669C12.3051 9.22669 12.1551 8.96869 11.9931 8.83669C11.8311 8.98069 11.6751 9.22068 11.6811 9.34068C11.6511 9.25068 11.5731 9.17869 11.4531 9.14869V9.49068L12.5331 9.48468Z" fill="white" stroke="black" stroke-width="0.16" stroke-linejoin="bevel"/>
<path d="M12.5813 10.0607V9.72469C12.4553 9.76069 12.3713 9.82669 12.3353 9.92269C12.3353 9.80269 12.1733 9.54469 11.9933 9.41269C11.8133 9.56269 11.6453 9.79669 11.6513 9.92269C11.6213 9.83269 11.5313 9.76069 11.4053 9.72469V10.0667L12.5813 10.0607Z" fill="white" stroke="black" stroke-width="0.16" stroke-linejoin="bevel"/>
<path d="M12.7249 10.7627V10.3667C12.5999 10.4057 12.492 10.4861 12.4189 10.5947C12.4189 10.3847 12.1789 10.0547 11.9929 9.95268C11.8009 10.0607 11.5669 10.3967 11.5669 10.5947C11.4919 10.4854 11.3818 10.4049 11.2549 10.3667V10.7627H12.7249Z" fill="white" stroke="black" stroke-width="0.16" stroke-linejoin="bevel"/>
<path d="M12.6407 11.6447V11.2367C12.4967 11.2907 12.4607 11.4227 12.4127 11.5187C12.4307 11.1047 12.1847 10.6667 11.9927 10.5527C11.8007 10.6667 11.5487 11.1167 11.5727 11.5127C11.5247 11.4287 11.4827 11.2907 11.3447 11.2367V11.6387L12.6407 11.6447Z" fill="white" stroke="black" stroke-width="0.16" stroke-linejoin="bevel"/>
<path d="M12.5454 12.2567V11.8487C12.3954 11.8847 12.3894 11.9387 12.3414 12.0287C12.3594 11.7827 12.1854 11.5007 11.9934 11.3927C11.8014 11.5007 11.6334 11.7827 11.6454 12.0287C11.5974 11.9387 11.5914 11.8847 11.4414 11.8487V12.2567H12.5454Z" fill="white" stroke="black" stroke-width="0.16"/>
<path d="M6.22131 13.7567V12.5327C6.17931 12.3767 6.04131 12.2327 5.94531 12.2087V11.1287L6.16731 11.2487L6.42531 12.3827V13.7627L6.22131 13.7567Z" fill="white" stroke="black" stroke-width="0.16"/>
<path d="M6.22131 13.7627V12.5327C6.17931 12.3767 6.04131 12.2327 5.94531 12.2087V11.0567C6.09531 11.0567 6.16731 11.2487 6.16731 11.2487L6.42531 12.3827V13.7567L6.22131 13.7627Z" fill="white" stroke="black" stroke-width="0.16"/>
<path d="M6.05957 14.0747C6.16157 14.0327 6.31157 13.9007 6.31157 13.7747V12.2387L6.23957 12.1187H8.86157L8.75957 12.2387V13.7747C8.76397 13.8383 8.78518 13.8996 8.82102 13.9523C8.85686 14.005 8.90605 14.0472 8.96357 14.0747H6.05957Z" fill="white" stroke="black" stroke-width="0.16"/>
<path d="M8.42905 14.0747C8.32705 14.0327 8.17706 13.9007 8.17706 13.7747V12.3167L8.39305 12.1127H6.61705L6.83305 12.3167V13.7747C6.83305 13.9007 6.68305 14.0327 6.58105 14.0747H8.42905Z" fill="white" stroke="black" stroke-width="0.16"/>
<path d="M8.18315 14.0747C8.08115 14.0327 7.92515 13.9007 7.92515 13.7747V12.4547L8.06915 12.2567H6.94115L7.08515 12.4547V13.7747C7.08515 13.9007 6.93515 14.0327 6.82715 14.0747H8.18315Z" fill="white" stroke="black" stroke-width="0.16"/>
<path d="M7.24135 12.2567H7.77535V14.0807H7.23535L7.24135 12.2567Z" fill="white" stroke="black" stroke-width="0.16"/>
<path d="M6.50338 12.7607H6.71938V13.7507H6.50338V12.7607ZM8.35138 12.7607H8.56138V13.7507H8.34538L8.35138 12.7607ZM6.31738 11.0927H6.58138V12.1127H6.31738V11.0927ZM6.31738 10.9007H6.57538V11.0927H6.31738V10.9007ZM8.45338 11.3147H8.81938V12.0947H8.45338V11.3147Z" fill="white"/>
<path d="M6.31738 11.0927H6.58138V12.1127H6.31738V11.0927ZM6.31738 11.0927H6.57538V10.9007H6.31738V11.0927ZM6.50338 12.7607H6.71938V13.7507H6.50338V12.7607ZM8.35138 12.7607H8.56138V13.7507H8.34538L8.35138 12.7607ZM8.45338 11.3147H8.81938V12.0947H8.45338V11.3147Z" stroke="black" stroke-width="0.16" stroke-linejoin="bevel"/>
<path d="M6.57513 12.1007V10.3607C6.64713 10.3607 6.65913 10.6187 6.82713 10.6187C6.91713 10.6187 6.91113 10.5107 6.85713 10.4267C6.81513 10.3487 6.76113 10.2467 6.83313 10.0487C6.88713 10.1987 7.01913 10.2467 6.99513 10.1567C6.95313 9.99469 6.82713 9.96469 6.92313 9.71869C6.95313 9.92269 7.08513 9.91669 7.05513 9.79669C7.01913 9.65869 6.94113 9.59869 7.03713 9.40669C7.09113 9.62869 7.15713 9.61669 7.15713 9.47869C7.15713 9.27469 7.15713 9.05869 7.40913 8.98069C7.40913 8.98069 7.42713 8.80069 7.52313 8.80069C7.61313 8.80069 7.63113 8.98069 7.63113 8.98069C7.88913 9.05869 7.88313 9.28069 7.88313 9.47869C7.88313 9.61669 7.94913 9.62869 8.00313 9.40669C8.09913 9.59869 8.02113 9.65869 7.98513 9.79669C7.95513 9.91669 8.08713 9.92269 8.11713 9.71869C8.21313 9.96469 8.08713 9.99469 8.04513 10.1567C8.02113 10.2467 8.15313 10.1987 8.20713 10.0487C8.27913 10.2467 8.22513 10.3487 8.18313 10.4267C8.13513 10.5107 8.12313 10.6187 8.21313 10.6187C8.38113 10.6187 8.39313 10.3667 8.46513 10.3667V12.1007H6.57513ZM6.16113 10.7867V12.1127H6.31113V10.7867C6.25713 10.7567 6.20913 10.7567 6.16113 10.7867Z" fill="white" stroke="black" stroke-width="0.16"/>
<path d="M6.17285 11.6447C6.35885 11.7407 6.54485 11.8547 6.59285 12.1127H6.17285V11.6447ZM8.76485 11.2487V12.1127H8.88485V11.2487C8.84885 11.2307 8.79485 11.2247 8.76485 11.2487Z" fill="white" stroke="black" stroke-width="0.16"/>
<path d="M8.88548 11.6447C8.69948 11.7347 8.51348 11.8427 8.46548 12.1067H8.88548V11.6447ZM7.64948 9.62269L7.75748 9.53269V9.41269C7.72148 9.41269 7.69748 9.43069 7.66748 9.47269C7.65584 9.43416 7.63655 9.39837 7.61078 9.36745C7.58501 9.33652 7.55328 9.3111 7.51748 9.29269C7.48116 9.30979 7.44864 9.33399 7.42185 9.36388C7.39505 9.39377 7.37452 9.42873 7.36148 9.4667C7.33148 9.4247 7.31348 9.4187 7.27148 9.4067V9.5267L7.37948 9.62269H7.64948Z" fill="white" stroke="black" stroke-width="0.16"/>
<path d="M7.70948 9.91669L7.75748 9.80268V9.65268C7.72148 9.65268 7.69748 9.67068 7.66748 9.71268C7.65584 9.67415 7.63655 9.63836 7.61078 9.60744C7.58501 9.57651 7.55328 9.55109 7.51748 9.53268C7.48116 9.54978 7.44864 9.57398 7.42185 9.60387C7.39505 9.63376 7.37452 9.66872 7.36148 9.70669C7.33148 9.66469 7.31348 9.65868 7.27148 9.65268V9.80268L7.31948 9.91669H7.70948Z" fill="white" stroke="black" stroke-width="0.16"/>
<path d="M7.72137 10.3127L7.87737 10.1147V9.9227C7.81737 9.9227 7.78737 9.9527 7.74537 10.0187C7.70337 9.8807 7.62537 9.8567 7.51737 9.7907C7.40337 9.8507 7.32537 9.8807 7.28937 10.0127C7.24137 9.9467 7.21137 9.9287 7.15137 9.9227V10.1147L7.31337 10.3127H7.72137Z" fill="white" stroke="black" stroke-width="0.16"/>
<path d="M7.76338 10.7027C7.76338 10.7027 7.95538 10.5407 7.96138 10.4507V10.2407C7.88938 10.2467 7.82338 10.2647 7.76938 10.3547C7.72138 10.1807 7.64938 10.1327 7.51738 10.0547C7.37938 10.1327 7.30738 10.1807 7.26538 10.3547C7.20538 10.2647 7.14538 10.2467 7.06738 10.2347V10.4507C7.11778 10.5459 7.18484 10.6312 7.26538 10.7027H7.76338Z" fill="white" stroke="black" stroke-width="0.16"/>
<path d="M7.84085 11.4227C7.84085 11.4227 8.10485 11.1407 8.11085 11.0267V10.7027C8.01485 10.7147 7.91885 10.7807 7.84685 10.9187C7.78685 10.6487 7.69085 10.4627 7.51685 10.3307C7.33685 10.4627 7.24085 10.6487 7.18085 10.9187C7.10885 10.7807 7.01885 10.7147 6.92285 10.7027V11.0267C6.94085 11.1407 7.18685 11.4227 7.18685 11.4227H7.84085Z" fill="white" stroke="black" stroke-width="0.16"/>
<path d="M7.84085 11.8487C7.84085 11.8487 8.06285 11.6267 8.11085 11.5307V11.2067C8.01485 11.2187 7.91885 11.2847 7.84685 11.4167C7.8308 11.3075 7.79339 11.2026 7.73677 11.1079C7.68015 11.0131 7.60542 10.9305 7.51685 10.8647C7.33685 10.9967 7.24085 11.1467 7.18085 11.4167C7.10885 11.2847 7.01885 11.2187 6.92285 11.2067V11.5307C6.98285 11.6267 7.18685 11.8487 7.18685 11.8487H7.84085Z" fill="white" stroke="black" stroke-width="0.16"/>
<path d="M7.93124 12.1007C7.87124 11.8187 7.81124 11.6087 7.50524 11.3987C7.19324 11.6087 7.13924 11.8187 7.07324 12.1007H7.93124Z" fill="white" stroke="black" stroke-width="0.16"/>
<path d="M8.09285 12.2567V11.8487C7.94885 11.9087 7.82285 11.9867 7.77485 12.0767C7.72685 11.8487 7.62485 11.7527 7.49885 11.6147C7.37285 11.7527 7.28885 11.8547 7.23485 12.0767C7.18685 11.9867 7.06085 11.9027 6.92285 11.8487V12.2567H8.09285Z" fill="white" stroke="black" stroke-width="0.16"/>
<path d="M17.7826 13.7567V12.5327C17.8246 12.3767 17.9626 12.2327 18.0586 12.2087V11.1287L17.8366 11.2487L17.5786 12.3827V13.7627L17.7826 13.7567Z" fill="white" stroke="black" stroke-width="0.16"/>
<path d="M17.7826 13.7627V12.5327C17.8246 12.3767 17.9626 12.2327 18.0586 12.2087V11.0567C17.9086 11.0567 17.8366 11.2487 17.8366 11.2487L17.5786 12.3827V13.7567L17.7826 13.7627Z" fill="white" stroke="black" stroke-width="0.16"/>
<path d="M17.9443 14.0747C17.8423 14.0327 17.6923 13.9007 17.6923 13.7747V12.2387L17.7643 12.1187H15.1423L15.2443 12.2387V13.7747C15.2399 13.8383 15.2187 13.8996 15.1829 13.9523C15.147 14.005 15.0979 14.0472 15.0403 14.0747H17.9443Z" fill="white" stroke="black" stroke-width="0.16"/>
<path d="M15.5749 14.0747C15.6769 14.0327 15.8269 13.9007 15.8269 13.7747V12.3167L15.6109 12.1127H17.3869L17.1709 12.3167V13.7747C17.1709 13.9007 17.3209 14.0327 17.4229 14.0747H15.5749Z" fill="white" stroke="black" stroke-width="0.16"/>
<path d="M15.8208 14.0747C15.9228 14.0327 16.0788 13.9007 16.0788 13.7747V12.4547L15.9348 12.2567H17.0628L16.9188 12.4547V13.7747C16.9188 13.9007 17.0688 14.0327 17.1768 14.0747H15.8208Z" fill="white" stroke="black" stroke-width="0.16"/>
<path d="M16.7626 12.2567H16.2286V14.0807H16.7686L16.7626 12.2567Z" fill="white" stroke="black" stroke-width="0.16"/>
<path d="M17.5005 12.7607H17.2845V13.7507H17.5005V12.7607ZM15.6525 12.7607H15.4425V13.7507H15.6585L15.6525 12.7607ZM17.6865 11.0927H17.4225V12.1127H17.6865V11.0927ZM17.6865 10.9007H17.4285V11.0927H17.6865V10.9007ZM15.5505 11.3147H15.1845V12.0947H15.5505V11.3147Z" fill="white"/>
<path d="M17.6865 11.0927H17.4225V12.1127H17.6865V11.0927ZM17.6865 11.0927H17.4285V10.9007H17.6865V11.0927ZM17.5005 12.7607H17.2845V13.7507H17.5005V12.7607ZM15.6525 12.7607H15.4425V13.7507H15.6585L15.6525 12.7607ZM15.5505 11.3147H15.1845V12.0947H15.5505V11.3147Z" stroke="black" stroke-width="0.16" stroke-linejoin="bevel"/>
<path d="M17.4288 12.1007V10.3607C17.3568 10.3607 17.3448 10.6187 17.1768 10.6187C17.0868 10.6187 17.0928 10.5107 17.1468 10.4267C17.1888 10.3487 17.2428 10.2467 17.1708 10.0487C17.1168 10.1987 16.9848 10.2467 17.0088 10.1567C17.0508 9.99469 17.1768 9.96469 17.0808 9.71869C17.0508 9.92269 16.9188 9.91669 16.9488 9.79669C16.9848 9.65869 17.0628 9.59869 16.9668 9.40669C16.9128 9.62869 16.8468 9.61669 16.8468 9.47869C16.8468 9.27469 16.8468 9.05869 16.5948 8.98069C16.5948 8.98069 16.5768 8.80069 16.4808 8.80069C16.3908 8.80069 16.3728 8.98069 16.3728 8.98069C16.1148 9.05869 16.1208 9.28069 16.1208 9.47869C16.1208 9.61669 16.0548 9.62869 16.0008 9.40669C15.9048 9.59869 15.9828 9.65869 16.0188 9.79669C16.0488 9.91669 15.9168 9.92269 15.8868 9.71869C15.7908 9.96469 15.9168 9.99469 15.9588 10.1567C15.9828 10.2467 15.8508 10.1987 15.7968 10.0487C15.7248 10.2467 15.7788 10.3487 15.8208 10.4267C15.8688 10.5107 15.8808 10.6187 15.7908 10.6187C15.6228 10.6187 15.6108 10.3667 15.5388 10.3667V12.1007H17.4288ZM17.8428 10.7867V12.1127H17.6928V10.7867C17.7468 10.7567 17.7948 10.7567 17.8428 10.7867Z" fill="white" stroke="black" stroke-width="0.16"/>
<path d="M17.8311 11.6447C17.6451 11.7407 17.4591 11.8547 17.4111 12.1127H17.8311V11.6447ZM15.2391 11.2487V12.1127H15.1191V11.2487C15.1551 11.2307 15.2091 11.2247 15.2391 11.2487Z" fill="white" stroke="black" stroke-width="0.16"/>
<path d="M15.1184 11.6447C15.3044 11.7347 15.4904 11.8427 15.5384 12.1067H15.1184V11.6447ZM16.3544 9.62269L16.2464 9.53269V9.41269C16.2824 9.41269 16.3064 9.43069 16.3364 9.47269C16.3481 9.43416 16.3674 9.39837 16.3931 9.36745C16.4189 9.33652 16.4506 9.3111 16.4864 9.29269C16.5227 9.30979 16.5553 9.33399 16.5821 9.36388C16.6089 9.39377 16.6294 9.42873 16.6424 9.4667C16.6724 9.4247 16.6904 9.4187 16.7324 9.4067V9.5267L16.6244 9.62269H16.3544Z" fill="white" stroke="black" stroke-width="0.16"/>
<path d="M16.2944 9.91669L16.2464 9.80268V9.65268C16.2824 9.65268 16.3064 9.67068 16.3364 9.71268C16.3481 9.67415 16.3674 9.63836 16.3931 9.60744C16.4189 9.57651 16.4506 9.55109 16.4864 9.53268C16.5227 9.54978 16.5553 9.57398 16.5821 9.60387C16.6089 9.63376 16.6294 9.66872 16.6424 9.70669C16.6724 9.66469 16.6904 9.65868 16.7324 9.65268V9.80268L16.6844 9.91669H16.2944Z" fill="white" stroke="black" stroke-width="0.16"/>
<path d="M16.2825 10.3127L16.1265 10.1147V9.9227C16.1865 9.9227 16.2165 9.9527 16.2585 10.0187C16.3005 9.8807 16.3785 9.8567 16.4865 9.7907C16.6005 9.8507 16.6785 9.8807 16.7145 10.0127C16.7625 9.9467 16.7925 9.9287 16.8525 9.9227V10.1147L16.6905 10.3127H16.2825Z" fill="white" stroke="black" stroke-width="0.16"/>
<path d="M16.2405 10.7027C16.2405 10.7027 16.0485 10.5407 16.0425 10.4507V10.2407C16.1145 10.2467 16.1805 10.2647 16.2345 10.3547C16.2825 10.1807 16.3545 10.1327 16.4865 10.0547C16.6245 10.1327 16.6965 10.1807 16.7385 10.3547C16.7985 10.2647 16.8585 10.2467 16.9365 10.2347V10.4507C16.8861 10.5459 16.8191 10.6312 16.7385 10.7027H16.2405Z" fill="white" stroke="black" stroke-width="0.16"/>
<path d="M16.1631 11.4227C16.1631 11.4227 15.8991 11.1407 15.8931 11.0267V10.7027C15.9891 10.7147 16.0851 10.7807 16.1571 10.9187C16.2171 10.6487 16.3131 10.4627 16.4871 10.3307C16.6671 10.4627 16.7631 10.6487 16.8231 10.9187C16.8951 10.7807 16.9851 10.7147 17.0811 10.7027V11.0267C17.0631 11.1407 16.8171 11.4227 16.8171 11.4227H16.1631Z" fill="white" stroke="black" stroke-width="0.16"/>
<path d="M16.1631 11.8487C16.1631 11.8487 15.9411 11.6267 15.8931 11.5307V11.2067C15.9891 11.2187 16.0851 11.2847 16.1571 11.4167C16.1731 11.3075 16.2105 11.2026 16.2671 11.1079C16.3238 11.0131 16.3985 10.9305 16.4871 10.8647C16.6671 10.9967 16.7631 11.1467 16.8231 11.4167C16.8951 11.2847 16.9851 11.2187 17.0811 11.2067V11.5307C17.0211 11.6267 16.8171 11.8487 16.8171 11.8487H16.1631Z" fill="white" stroke="black" stroke-width="0.16"/>
<path d="M16.0727 12.1007C16.1327 11.8187 16.1927 11.6087 16.4987 11.3987C16.8107 11.6087 16.8647 11.8187 16.9307 12.1007H16.0727Z" fill="white" stroke="black" stroke-width="0.16"/>
<path d="M15.9111 12.2567V11.8487C16.0551 11.9087 16.1811 11.9867 16.2291 12.0767C16.2771 11.8487 16.3791 11.7527 16.5051 11.6147C16.6311 11.7527 16.7151 11.8547 16.7691 12.0767C16.8171 11.9867 16.9431 11.9027 17.0811 11.8487V12.2567H15.9111Z" fill="white" stroke="black" stroke-width="0.16"/>
<path d="M4.64293 15.5627H19.3609V16.3127H4.64293V15.5627ZM4.25293 16.3127H19.7509V17.0627H4.25293V16.3127ZM5.41693 14.4347H18.5809V14.9207H5.41693V14.4347Z" fill="white" stroke="black" stroke-width="0.16"/>
<path d="M5.0332 14.9207H18.9772V15.5567H5.0332V14.9207ZM5.6452 14.0627H18.3652V14.4347H5.6452V14.0627Z" fill="white" stroke="black" stroke-width="0.16"/>
<path d="M7.02539 14.0627H7.98539V17.0627H7.02539V14.0627Z" fill="white" stroke="black" stroke-width="0.16"/>
<path d="M7.24135 14.0627H7.77535V17.0627H7.23535L7.24135 14.0627ZM11.5014 14.0627H12.4614V17.0627H11.5014V14.0627Z" fill="white" stroke="black" stroke-width="0.16"/>
<path d="M11.7227 14.0627H12.2627V17.0627H11.7227V14.0627ZM16.0127 14.0627H16.9727V17.0627H16.0127V14.0627Z" fill="white" stroke="black" stroke-width="0.16"/>
<path d="M16.2227 14.0627H16.7627V17.0627H16.2227V14.0627Z" fill="white" stroke="black" stroke-width="0.16"/>
<path d="M6.2207 13.7567H17.8007M7.2287 16.6847H7.7807M7.2287 16.3067H7.7807M7.2287 15.9347H7.7807M7.2287 15.5567H7.7807M7.2287 15.1847H7.7807M7.2287 14.8067H7.7807M7.2287 14.4347H7.7807M11.7287 16.6847H12.2447M11.7287 16.3067H12.2447M11.7287 15.9347H12.2447M11.7287 15.5567H12.2447M11.7287 15.1847H12.2447M11.7287 14.8067H12.2447M11.7287 14.4347H12.2447M16.2167 16.6847H16.7687M16.2167 16.3067H16.7687M16.2167 15.9347H16.7687M16.2167 15.5567H16.7687M16.2167 15.1847H16.7687M16.2167 14.8067H16.7687M16.2167 14.4347H16.7687" stroke="black" stroke-width="0.16"/>
</g>
<defs>
<clipPath id="clip0_3907_3016">
<rect width="24" height="24" fill="white"/>
</clipPath>
</defs>
</svg>
