<svg width="102" height="80" viewBox="0 0 102 80" fill="none" xmlns="http://www.w3.org/2000/svg">
<g clip-path="url(#clip0)">
<path d="M5.50426 68.1183C5.88164 69.2473 6.1512 70.4301 6.31293 71.6129H6.09728C5.39643 71.6129 4.74949 72.1505 4.64167 72.8495L3.88691 76.9892C3.72517 77.9032 4.42602 78.7634 5.34252 78.7634H28.6863C29.6028 78.7634 30.3575 77.9032 30.1419 76.9892L29.3871 72.8495C29.2793 72.3118 28.9019 71.8817 28.4167 71.7204V69.086C28.4167 67.2043 28.7402 65.3226 29.3332 63.5484L30.5193 60L32.5679 53.6559C32.7835 52.957 32.9453 52.2581 33.0531 51.5054L34.5626 40.6989C34.8861 38.3333 33.3227 36.0215 30.8966 35.4301C28.9558 34.9462 27.015 35.5914 25.775 36.9892V41.5591C25.775 44.3548 25.2359 47.1505 24.2116 49.7849C23.1873 52.3656 20.6534 54.0323 17.85 54.0323C17.6344 54.0323 17.4187 54.0323 17.2031 53.9785C17.0953 53.9785 17.0413 53.9785 16.9335 53.9785C14.0223 53.6021 11.8658 51.0753 11.8658 48.1183V20L6.85205 27.5269C3.67126 32.2581 2 37.7419 2 43.3871V51.129C2 55.8602 2.80867 60.4839 4.3182 65L5.50426 68.1183Z" fill="#D6D0DF"/>
<path d="M98.2867 64.3656C99.0414 62.1075 99.6345 59.7957 100.012 57.4839C101.467 54.043 102.33 49.1505 100.605 42.8065C100.605 37.1613 98.9336 31.6774 95.7528 26.9462L91.8173 22.3763L87.2348 17V48.8817C86.6957 49.4194 85.9409 49.8495 85.0783 49.9032C83.5688 50.0645 82.1671 49.2043 81.628 47.914L77.6385 37.7527C76.722 35.4409 74.1882 34.1505 71.7082 34.7957C69.2822 35.4409 67.7188 37.6989 68.0423 40.0645L69.5518 50.871C69.6596 51.6237 69.8213 52.3226 70.037 53.0215L72.1395 59.3118L73.3256 62.8602C73.9186 64.6882 74.2421 66.5161 74.2421 68.3979V71.0323C73.7569 71.1936 73.3795 71.6237 73.2717 72.1613L72.5169 76.3011C72.3552 77.2151 73.056 78.0753 73.9725 78.0753H97.3702C98.2867 78.0753 99.0414 77.2151 98.8258 76.3011L98.071 72.1613C97.9632 71.4624 97.3163 70.9247 96.6154 70.9247H96.3998C96.5615 69.7419 96.8311 68.5591 97.2084 67.4301L98.2867 64.3656Z" fill="#D6D0DF"/>
<path d="M84.5873 48.3871C84.5334 48.3871 84.4795 48.3871 84.4256 48.3871C84.0482 48.3871 83.7248 48.2796 83.4552 48.1183C83.2935 48.0108 83.1856 47.9032 83.1317 47.7957C83.0239 47.6882 82.97 47.5806 82.9161 47.4194L78.9266 37.2581C78.4414 35.9677 77.5249 34.8925 76.4467 34.1936C75.3685 33.4946 74.0746 33.0645 72.7268 33.0645C72.1338 33.0645 71.5946 33.1183 71.0016 33.2796C69.546 33.6559 68.306 34.5161 67.4435 35.5914C66.5809 36.7204 66.0417 38.0645 66.0417 39.5161C66.0417 39.7849 66.0417 40.1075 66.0957 40.3763L67.6052 51.2366C67.713 52.043 67.9287 52.9032 68.1982 53.6559L69.546 57.7419H32.4548L33.8026 53.6559C34.0722 52.8495 34.2339 52.043 34.3956 51.2366L35.9051 40.3763C35.9591 40.1075 35.9591 39.7849 35.9591 39.5161C35.9591 38.0645 35.4739 36.6667 34.5574 35.5914C33.6948 34.4624 32.4548 33.6559 30.9992 33.2796C30.4062 33.1183 29.867 33.0645 29.274 33.0645C28.5193 33.0645 27.8184 33.2258 27.1175 33.4409V3.33333H85.2343V48.1183C85.0186 48.2258 84.8569 48.3871 84.5873 48.3871ZM96.1244 72.957L96.8253 76.6667H73.8589L74.5598 72.957H96.1244ZM5.82246 72.8495H5.93028L27.3871 72.957L28.088 76.6667H5.1216L5.82246 72.8495ZM3.34252 50.6452V42.9032C3.34252 37.5807 4.90596 32.4731 7.92501 27.957L9.91974 25V47.5806C9.91974 48.4946 10.0815 49.4086 10.4049 50.2688C10.8901 51.5054 11.6988 52.6344 12.7231 53.4946C13.7475 54.3548 15.0413 54.8925 16.3891 55.1075C16.3891 55.1075 16.3891 55.1075 16.443 55.1075C16.5509 55.1075 16.6587 55.1075 16.7126 55.1613C16.9822 55.1613 17.2517 55.2151 17.5213 55.2151C19.2465 55.2151 20.9177 54.6774 22.3194 53.7634C23.7211 52.8495 24.8533 51.5054 25.4463 49.8925C26.5245 47.0968 27.1175 44.086 27.1175 41.0753V37.2581C27.7106 36.7742 28.4653 36.3979 29.274 36.3979C29.5436 36.3979 29.867 36.4516 30.1366 36.5054C30.8914 36.7204 31.4844 37.0968 31.9157 37.6344C32.347 38.172 32.5626 38.8172 32.5626 39.5161C32.5626 39.6774 32.5626 39.785 32.5087 39.9462L30.9992 50.7527C30.8914 51.3979 30.7835 51.9893 30.5679 52.6344L28.4653 58.9247L27.2793 62.4731C26.6323 64.4624 26.3089 66.5054 26.3089 68.5484V69.5161L7.17025 69.4086C7.00851 68.6022 6.90069 67.7957 6.63113 67.043L5.49899 63.8172C4.09728 59.6774 3.34252 55.1613 3.34252 50.6452ZM13.2084 5.86022C13.2084 5.48387 13.2623 5.16129 13.424 4.89247C13.6396 4.46237 13.9092 4.03226 14.3405 3.76344C14.7179 3.49462 15.2031 3.33333 15.7422 3.33333H23.775V36.5054V41.0753C23.775 43.6559 23.2898 46.2366 22.3733 48.6559C22.2116 49.1398 21.942 49.5699 21.6186 49.9462C21.1334 50.5376 20.5403 51.0215 19.8395 51.3441C19.1386 51.6667 18.3839 51.828 17.5752 51.828C17.4135 51.828 17.2517 51.828 17.09 51.828C17.0361 51.828 16.9822 51.828 16.9283 51.828H16.8743C16.3352 51.7742 15.9039 51.6129 15.4726 51.3441C14.8257 50.9677 14.2866 50.4301 13.9092 49.7849C13.5318 49.1398 13.3162 48.3871 13.3162 47.5806V19.5699V5.86022H13.2084ZM96.7175 25.9677L88.5768 16.5054V2.31183C88.5768 1.98925 88.5229 1.66667 88.4151 1.39785C88.2533 0.967742 87.9299 0.645161 87.5525 0.376344C87.3908 0.268817 87.1751 0.268817 87.0134 0.215054C86.7977 0.107527 86.5821 0 86.3125 0C86.2586 0 86.2586 0 86.2586 0H86.2047H26.0932H15.7422C14.9335 0 14.1788 0.16129 13.4779 0.483871C12.3997 0.913979 11.5371 1.66667 10.8902 2.58065C10.2432 3.49462 9.86583 4.62366 9.86583 5.86022V19.086L5.1216 26.129C1.77908 31.129 0 36.9893 0 42.9032V50.6452C0 55.5376 0.808674 60.3763 2.42602 65.0538L3.55817 68.2796C3.77381 68.871 3.88164 69.5161 3.98946 70.1075C3.88164 70.1613 3.77381 70.2151 3.7199 70.2688C3.45034 70.4839 3.18079 70.7527 3.01905 71.0753C2.85732 71.3979 2.69558 71.7204 2.64167 72.0968L1.88691 76.2366C1.833 76.4516 1.833 76.6129 1.833 76.828C1.833 77.2581 1.94082 77.6882 2.10255 78.0645C2.3182 78.6559 2.74949 79.086 3.2347 79.4624C3.50426 79.6237 3.77381 79.785 4.09728 79.8925C4.42075 80 4.74422 80.0538 5.06769 80.0538H28.4114C28.8427 80.0538 29.274 79.9462 29.6514 79.785C30.2444 79.5161 30.7296 79.1398 31.0531 78.6559C31.3766 78.1721 31.5922 77.5269 31.5922 76.8817C31.5922 76.6667 31.5922 76.5054 31.5383 76.2903L30.7835 72.1505C30.6757 71.6129 30.4062 71.0753 30.0827 70.6989C30.0288 70.6452 29.921 70.5914 29.867 70.5376V68.7097C29.867 66.9893 30.1366 65.3226 30.6757 63.6559L31.4844 61.2366H70.6242L71.4329 63.6559C71.972 65.2688 72.2416 66.9893 72.2416 68.7097V70.5376C72.1877 70.5914 72.0799 70.6452 72.0259 70.6989C71.7025 71.129 71.4329 71.6129 71.3251 72.1505L70.5703 76.2903C70.5164 76.5054 70.5164 76.6667 70.5164 76.8817C70.5164 77.3118 70.6242 77.7419 70.786 78.1183C71.0016 78.6559 71.4329 79.1936 71.9181 79.5161C72.1877 79.6774 72.4572 79.8387 72.7807 79.9462C73.1042 80.0538 73.4276 80.1075 73.7511 80.1075H97.0409C97.4722 80.1075 97.9035 80 98.2809 79.8387C98.8739 79.5699 99.3591 79.1936 99.6826 78.7097C100.006 78.2258 100.222 77.5807 100.222 76.9355C100.222 76.7204 100.222 76.5591 100.168 76.3441L99.413 72.2043C99.3591 71.828 99.1974 71.5054 99.0357 71.1828C98.7661 70.7527 98.4426 70.4839 98.0653 70.2151C98.227 69.6237 98.2809 68.9785 98.4966 68.3871L99.6287 65.1613C100.653 62.2043 101.354 59.1398 101.731 56.0753C101.839 55.1613 101.192 54.3548 100.276 54.1936C99.3591 54.086 98.5505 54.7312 98.3887 55.6452C98.0653 58.4946 97.4183 61.2903 96.4479 64.0323L95.3158 67.2581C95.0462 68.0645 94.8845 68.871 94.7227 69.6774H75.638V68.7097C75.638 66.6667 75.3146 64.6237 74.6676 62.6344L73.4816 59.086L71.3251 52.6882C71.1094 52.0968 71.0016 51.4516 70.8938 50.8065L69.3843 40C69.3843 39.8387 69.3304 39.7312 69.3304 39.5699C69.3304 38.871 69.546 38.2258 69.9773 37.6882C70.4086 37.1505 71.0016 36.7204 71.7564 36.5591C72.0259 36.5054 72.3494 36.4516 72.619 36.4516C73.3198 36.4516 73.9668 36.6667 74.5059 36.9893C75.045 37.3656 75.4763 37.8495 75.6919 38.4946L79.6814 48.6559C79.8431 49.1398 80.1127 49.5699 80.4362 49.9462C80.9214 50.5376 81.5144 50.9677 82.1613 51.2903C82.8083 51.6129 83.563 51.7742 84.3178 51.7742C84.4795 51.7742 84.6413 51.7742 84.803 51.7742C86.043 51.6667 87.1751 51.0753 88.0377 50.2688C88.3073 49.9462 88.5229 49.5699 88.5229 49.1398V21.6667L94.0219 28.0645C96.987 32.5269 98.5505 37.6882 98.5505 42.957V44.6237C98.5505 45.5376 99.3052 46.2903 100.222 46.2903C101.138 46.2903 101.893 45.5376 101.893 44.6237V42.9032C101.893 36.9355 100.114 31.129 96.7714 26.129C96.7714 26.0753 96.7714 26.0215 96.7175 25.9677Z" fill="#31135E"/>
<path d="M80.2213 12H32.6713C31.7548 12 31 12.7527 31 13.6667C31 14.5806 31.7548 15.3333 32.6713 15.3333H80.2213C81.1378 15.3333 81.8926 14.5806 81.8926 13.6667C81.8926 12.7527 81.1378 12 80.2213 12Z" fill="#D6D0DF"/>
<path d="M80.2213 19H32.6713C31.7548 19 31 19.7527 31 20.6667C31 21.5806 31.7548 22.3333 32.6713 22.3333H80.2213C81.1378 22.3333 81.8926 21.5806 81.8926 20.6667C81.8926 19.7527 81.1378 19 80.2213 19Z" fill="#D6D0DF"/>
<path d="M43.2918 27.6667C43.2918 26.7527 42.5371 26 41.6206 26H32.6713C31.7548 26 31 26.7527 31 27.6667C31 28.5806 31.7548 29.3333 32.6713 29.3333H41.6206C42.591 29.3333 43.2918 28.5806 43.2918 27.6667Z" fill="#D6D0DF"/>
<path d="M59.6672 41H42.6713C41.7548 41 41 41.7527 41 42.6667C41 43.5806 41.7548 44.3333 42.6713 44.3333H59.6672C60.5837 44.3333 61.3385 43.5806 61.3385 42.6667C61.3385 41.7527 60.6376 41 59.6672 41Z" fill="#D6D0DF"/>
<path d="M59.6672 47H42.6713C41.7548 47 41 47.7527 41 48.6667C41 49.5806 41.7548 50.3333 42.6713 50.3333H59.6672C60.5837 50.3333 61.3385 49.5806 61.3385 48.6667C61.3385 47.7527 60.6376 47 59.6672 47Z" fill="#D6D0DF"/>
<path d="M80.4009 26H49.6713C48.7548 26 48 26.7527 48 27.6667C48 28.5806 48.7548 29.3333 49.6713 29.3333H80.4009C81.3174 29.3333 82.0721 28.5806 82.0721 27.6667C82.0721 26.7527 81.3174 26 80.4009 26Z" fill="#D6D0DF"/>
</g>
<defs>
<clipPath id="clip0">
<rect width="101.947" height="80" fill="white"/>
</clipPath>
</defs>
</svg>
