
<svg width="24" height="24" viewBox="0 0 24 24" fill="none" xmlns="http://www.w3.org/2000/svg">
<path d="M11.1642 3.66667C10.899 3.66667 10.6446 3.77203 10.4571 3.95956L9.91667 4.50001H6.5698C6.09312 4.50001 5.68271 4.83646 5.58922 5.30389L5.33333 6.58334H18.6667L18.4108 5.30389C18.3173 4.83646 17.9069 4.50001 17.4302 4.50001H14.0833L13.5429 3.95956C13.3554 3.77203 13.101 3.66667 12.8358 3.66667H11.1642ZM6.16667 7.83334L7 17.8333C7 18.75 7.75 19.5 8.66667 19.5H15.3333C16.25 19.5 17 18.75 17 17.8333L17.8333 7.83334H6.16667ZM9.08333 10.3333H10.3333V17L9.5 17L9.08333 10.3333ZM13.6667 10.3333H14.9167L14.5 17L13.6667 17V10.3333Z" fill="#B31D39"/>
</svg>
